<?xml version="1.0" encoding="UTF-8"?>
<svg version="1.1" xmlns="http://www.w3.org/2000/svg" width="1536" height="1024">
<path d="M0 0 C506.88 0 1013.76 0 1536 0 C1536 337.92 1536 675.84 1536 1024 C1029.12 1024 522.24 1024 0 1024 C0 686.08 0 348.16 0 0 Z " fill="#FEFEFD" transform="translate(0,0)"/>
<path d="M0 0 C23.74973922 20.43967103 41.511253 51.0269394 44.25 82.625 C45.14033364 97.71965376 45.01101293 112.19718956 40.25 126.625 C39.98203613 127.4514502 39.71407227 128.27790039 39.43798828 129.12939453 C36.47172582 138.16777073 33.22679153 146.97935191 29.25 155.625 C26.55374577 154.27687288 26.2958987 152.85278961 25.0625 150.125 C19.85057195 139.42683189 11.49738794 129.77343277 1.25 123.625 C1.38929932 123.07207275 1.52859863 122.51914551 1.67211914 121.94946289 C7.52689865 96.27411276 3.01633351 71.6984 -10.75 49.625 C-13.19520665 46.04757704 -15.82025759 42.81406048 -18.75 39.625 C-19.48605469 38.79742187 -20.22210938 37.96984375 -20.98046875 37.1171875 C-27.46187385 30.20227895 -34.63632626 25.3760802 -42.75 20.625 C-43.55824219 20.13128906 -44.36648438 19.63757813 -45.19921875 19.12890625 C-64.17823086 8.49668481 -88.0698857 7.30979734 -108.75 12.625 C-124.80225643 17.18667459 -137.15380272 24.8968403 -148.75 36.625 C-149.56339844 37.42808594 -150.37679687 38.23117187 -151.21484375 39.05859375 C-163.4641704 51.81045687 -170.44753527 68.44325783 -173.75 85.625 C-174.0284375 87.04232422 -174.0284375 87.04232422 -174.3125 88.48828125 C-177.84873253 113.84180556 -170.29494707 138.33915925 -155.375 158.8125 C-140.76506211 177.64524386 -119.82856387 190.20047161 -96.0625 193.375 C-94.62629982 193.47834282 -93.18849088 193.56101019 -91.75 193.625 C-90.92242187 193.68816406 -90.09484375 193.75132812 -89.2421875 193.81640625 C-66.64836377 194.7919056 -43.68932979 186.02458928 -27.11328125 170.91015625 C-26.66339844 170.48605469 -26.21351563 170.06195312 -25.75 169.625 C-26.11800488 166.03838835 -26.11800488 166.03838835 -28.23828125 163.296875 C-28.84027344 162.99265625 -29.44226563 162.6884375 -30.0625 162.375 C-30.65675781 162.06046875 -31.25101563 161.7459375 -31.86328125 161.421875 C-35.65944287 159.81852724 -39.07882251 159.49519829 -43.18603516 159.46728516 C-44.27461823 159.45702301 -45.36320129 159.44676086 -46.48477173 159.43618774 C-47.65768768 159.42888641 -48.83060364 159.42158508 -50.0390625 159.4140625 C-52.53255853 159.38598385 -55.02604803 159.35731932 -57.51953125 159.328125 C-61.44286851 159.28695569 -65.36608499 159.25006005 -69.28955078 159.22363281 C-73.08131039 159.1958894 -76.87251819 159.15000704 -80.6640625 159.1015625 C-81.82483307 159.09830963 -82.98560364 159.09505676 -84.18154907 159.09170532 C-96.15982265 158.91252845 -106.70635862 155.99716584 -115.7578125 147.80859375 C-120.21468377 143.03337453 -123.35157743 137.68676663 -125.75 131.625 C-125.99788269 131.00985031 -126.24576538 130.39470062 -126.50115967 129.76091003 C-129.43282092 121.45470618 -129.2233089 113.10347175 -129.21875 104.41796875 C-129.22586309 102.76271816 -129.23356375 101.10747001 -129.24182129 99.45222473 C-129.25519658 96.00201531 -129.25686385 92.55203457 -129.25097656 89.10180664 C-129.24505262 84.68540193 -129.27581416 80.27008599 -129.31609344 75.85389233 C-129.34194611 72.44375213 -129.34485077 69.03387619 -129.34120178 65.6236515 C-129.34289184 63.9949702 -129.35252343 62.36627654 -129.37034607 60.73769188 C-129.3925158 58.46394816 -129.38285132 56.19243803 -129.36523438 53.91870117 C-129.36728882 52.62759933 -129.36934326 51.3364975 -129.37145996 50.00627136 C-128.58893842 45.74868785 -127.10704377 44.27200581 -123.75 41.625 C-120.875 41.00976562 -120.875 41.00976562 -117.75 41.03125 C-116.615625 41.03382813 -115.48125 41.03640625 -114.3125 41.0390625 C-113.136875 41.06742187 -111.96125 41.09578125 -110.75 41.125 C-109.574375 41.12242187 -108.39875 41.11984375 -107.1875 41.1171875 C-96.99992681 41.23295538 -96.99992681 41.23295538 -92.75 44.625 C-90.13801172 48.97519596 -89.38159374 52.16393525 -89.4128418 57.20947266 C-89.41219978 59.14145004 -89.41219978 59.14145004 -89.4115448 61.11245728 C-89.41796682 61.79304829 -89.42438885 62.4736393 -89.43100548 63.17485428 C-89.44947712 65.31905472 -89.44668712 67.46228447 -89.4379425 69.60653687 C-89.41619178 75.69845844 -89.42715556 81.78999943 -89.46508789 87.88183594 C-89.48686972 91.61731955 -89.47967029 95.35184286 -89.4546299 99.08729172 C-89.45103768 100.50745654 -89.45869262 101.92769663 -89.47788048 103.34773636 C-89.53299044 107.50435338 -89.52751195 111.53389318 -88.75 115.625 C-85.25208677 119.17763022 -81.58780101 120.44600978 -76.66827393 120.75630188 C-75.92599548 120.75978134 -75.18371704 120.7632608 -74.41894531 120.7668457 C-73.56995667 120.77388016 -72.72096802 120.78091461 -71.84625244 120.78816223 C-70.47602936 120.79440865 -70.47602936 120.79440865 -69.078125 120.80078125 C-67.11327094 120.82401355 -65.1484272 120.84813217 -63.18359375 120.87304688 C-60.110122 120.90785651 -57.0370219 120.93733629 -53.96337891 120.95092773 C-30.35777148 121.07553099 -11.37206918 124.96690605 6.40234375 141.64453125 C12.34299532 147.79042606 15.90611333 154.86892001 19.25 162.625 C19.91708984 164.08873047 19.91708984 164.08873047 20.59765625 165.58203125 C22.13973454 169.68055873 22.79787997 172.25046015 21.14453125 176.3984375 C19.35532455 179.32176379 17.39284107 181.95132762 15.25 184.625 C14.65574219 185.43582031 14.06148437 186.24664063 13.44921875 187.08203125 C-7.27246091 214.54824048 -37.13150828 229.64698722 -70.75 234.625 C-107.65716409 236.87630566 -141.90436216 228.43629961 -170.23803711 203.71777344 C-171.75167229 202.36422746 -173.251105 200.99485106 -174.75 199.625 C-175.60980469 198.85929688 -176.46960938 198.09359375 -177.35546875 197.3046875 C-198.30673351 177.65246777 -210.87501144 149.57727255 -215.75 121.625 C-215.935625 120.58601562 -216.12125 119.54703125 -216.3125 118.4765625 C-220.50942229 81.5286573 -210.69848533 45.95571113 -187.94042969 16.64379883 C-167.41898575 -8.83228263 -138.28735149 -26.44941216 -105.5859375 -30.94140625 C-66.41383554 -35.0821667 -30.31134894 -25.22412954 0 0 Z " fill="#01A2AC" transform="translate(463.75,396.375)"/>
<path d="M0 0 C9.60954534 6.78224714 15.34429968 16.33231423 18.546875 27.49609375 C18.74023438 28.09164062 18.93359375 28.6871875 19.1328125 29.30078125 C20.79392737 38.10782426 20.39259181 48.99165272 17.546875 57.49609375 C17.30195312 58.29015625 17.05703125 59.08421875 16.8046875 59.90234375 C12.60025078 71.95754284 4.16506768 79.99325509 -6.97265625 85.8125 C-16.81330997 90.04678428 -28.12692103 90.21490487 -38.078125 86.30859375 C-42.75453945 84.19817749 -45.27628299 81.97679542 -49.453125 78.49609375 C-49.453125 93.01609375 -49.453125 107.53609375 -49.453125 122.49609375 C-57.373125 122.49609375 -65.293125 122.49609375 -73.453125 122.49609375 C-73.453125 80.58609375 -73.453125 38.67609375 -73.453125 -4.50390625 C-66.193125 -4.50390625 -58.933125 -4.50390625 -51.453125 -4.50390625 C-51.453125 -1.20390625 -51.453125 2.09609375 -51.453125 5.49609375 C-50.93105469 4.965 -50.40898438 4.43390625 -49.87109375 3.88671875 C-35.58527038 -9.82366865 -16.50186755 -10.11659078 0 0 Z " fill="#1E2F36" transform="translate(873.453125,470.50390625)"/>
<path d="M0 0 C9.50171595 7.71412829 15.20599248 17.09070096 18 29 C18.28837727 31.90209879 18.33402547 34.77251505 18.3125 37.6875 C18.30512817 38.87279297 18.30512817 38.87279297 18.29760742 40.08203125 C18.03965593 53.07749505 14.38475266 64.64317423 5.4375 74.25 C-5.83747949 84.92096273 -18.66823002 87.71622389 -33.7109375 87.30859375 C-45.28019635 86.68927092 -56.04108459 81.87742597 -64.28515625 73.74609375 C-75.93320535 60.18210386 -77.14136981 45.10141799 -76 28 C-73.86586103 15.60656646 -66.1146061 5.24315493 -56 -2 C-38.33974998 -12.1617544 -16.84780258 -11.66765831 0 0 Z " fill="#1E3037" transform="translate(670,473)"/>
<path d="M0 0 C9.78959704 9.24176071 15.19351922 21.24042514 15.77929688 34.60668945 C15.95770069 48.47365075 13.15865148 61.00823272 3.1875 71.25 C2.58035156 71.88421875 1.97320313 72.5184375 1.34765625 73.171875 C-8.4337128 82.53318526 -21.05556836 85.68129728 -34.23071289 85.61352539 C-47.99125741 85.2781205 -58.67834729 79.8520128 -68.125 70 C-78.0286547 58.23565866 -79.91073031 44.09852203 -78.8125 29.25 C-77.24927864 17.32688436 -71.68882422 6.64138711 -62.328125 -1 C-43.2691578 -14.25841197 -18.55650166 -14.6454901 0 0 Z " fill="#1E3037" transform="translate(773.8125,474.75)"/>
<path d="M0 0 C8.22576121 7.71061253 12.30520243 17.04347448 14.8125 27.875 C14.8125 32.825 14.8125 37.775 14.8125 42.875 C-6.6375 42.875 -28.0875 42.875 -50.1875 42.875 C-47.49356879 54.319612 -47.49356879 54.319612 -40.1875 62.1875 C-33.83862125 65.7587443 -26.60139815 65.7603837 -19.5390625 64.34375 C-15.18174992 63.23276931 -15.18174992 63.23276931 -12.12890625 60.203125 C-11.81824219 59.43484375 -11.50757813 58.6665625 -11.1875 57.875 C-10.64706879 56.62446536 -10.10532701 55.37449654 -9.5625 54.125 C-8.881875 52.51625 -8.881875 52.51625 -8.1875 50.875 C-7.10210938 51.15214844 -6.01671875 51.42929687 -4.8984375 51.71484375 C-3.45315719 52.0808563 -2.00784288 52.4467346 -0.5625 52.8125 C0.15035156 52.99490234 0.86320313 53.17730469 1.59765625 53.36523438 C5.65219313 54.38816799 9.67197059 55.25457367 13.8125 55.875 C13.41759501 63.57564736 8.5467707 69.50443879 3.125 74.625 C-7.78339279 83.59736124 -21.33341021 86.00551187 -35.08691406 85.11767578 C-44.41843588 84.03962689 -53.32240685 80.3131595 -60.1875 73.875 C-61.095 73.029375 -62.0025 72.18375 -62.9375 71.3125 C-63.68 70.508125 -64.4225 69.70375 -65.1875 68.875 C-66.1775 67.823125 -66.1775 67.823125 -67.1875 66.75 C-75.88864544 54.24210344 -77.38260794 38.57443113 -74.82128906 23.75634766 C-71.92913597 12.48536849 -64.48687369 2.52601814 -54.765625 -3.69140625 C-37.32983575 -13.38676179 -15.81522706 -12.68259555 0 0 Z " fill="#1D2F36" transform="translate(1014.1875,474.125)"/>
<path d="M0 0 C1.16402344 0.51046875 1.16402344 0.51046875 2.3515625 1.03125 C10.63944634 5.13361391 15.67371171 11.30633436 19.2734375 19.7265625 C20.80953628 24.53306513 21.12393877 29.26151087 21.11352539 34.28076172 C21.11341209 36.11198074 21.11341209 36.11198074 21.11329651 37.98019409 C21.10813522 39.28352692 21.10297394 40.58685974 21.09765625 41.9296875 C21.09578901 43.28874662 21.09436655 44.64780642 21.09336853 46.00686646 C21.08956748 49.56768686 21.07975802 53.12846587 21.06866455 56.68927002 C21.05839835 60.32929932 21.05385979 63.96933537 21.04882812 67.609375 C21.03813339 74.73960179 21.02055635 81.86979382 21 89 C13.41 89 5.82 89 -2 89 C-2 86.36 -2 83.72 -2 81 C-2.71285156 81.47050781 -3.42570312 81.94101562 -4.16015625 82.42578125 C-15.95588837 90.09380092 -25.71313 93.1905725 -40 92 C-47.92603874 90.15207524 -54.57240496 85.74895777 -59.34765625 79.1328125 C-63.0149772 73.00746639 -63.85704521 67.02777073 -63 60 C-60.59017728 52.08872835 -56.00404589 47.19793776 -49 43 C-35.16306348 35.75430689 -18.24368253 34.93186034 -3 33 C-3.82027532 25.45892372 -3.82027532 25.45892372 -7.375 18.9375 C-13.17587118 14.6559046 -17.87714234 14.2304946 -25 15 C-30.22423844 16.38961225 -33.11457028 18.70423921 -36 23.25 C-36.68722627 24.48881577 -37.36154094 25.73535994 -38 27 C-42.72502701 26.36757331 -46.90570197 25.08186437 -51.375 23.4375 C-52.01566406 23.20353516 -52.65632813 22.96957031 -53.31640625 22.72851562 C-54.8793161 22.15700381 -56.43990727 21.57915771 -58 21 C-57.26736796 14.01490547 -54.03996821 10.64076281 -49 6 C-35.71492851 -4.12822282 -15.44805292 -6.91537387 0 0 Z " fill="#1D2F36" transform="translate(1101,467)"/>
<path d="M0 0 C10.11848916 6.23387724 15.46748913 14.74458647 18.49543762 26.09469604 C19.64715124 31.88075049 19.50217773 37.63707994 19.4296875 43.515625 C19.42544266 44.83182327 19.42119781 46.14802155 19.41682434 47.50410461 C19.40549465 50.96473003 19.37613383 54.42496389 19.3427124 57.88543701 C19.31175159 61.43203437 19.29826406 64.97869642 19.28320312 68.52539062 C19.25124938 75.45590399 19.19858236 82.38609588 19.13671875 89.31640625 C10.88671875 89.31640625 2.63671875 89.31640625 -5.86328125 89.31640625 C-5.90066406 85.45050781 -5.93804688 81.58460938 -5.9765625 77.6015625 C-6.02283418 73.83840424 -6.0740475 70.07534321 -6.12573242 66.31225586 C-6.15889251 63.70619667 -6.1869519 61.10006721 -6.2097168 58.49389648 C-6.24342614 54.73781515 -6.29575237 50.9823727 -6.3515625 47.2265625 C-6.35795242 46.06995621 -6.36434235 44.91334991 -6.3709259 43.72169495 C-6.5079268 36.10509344 -6.74786262 28.51170741 -12.30078125 22.81640625 C-17.17402062 19.96377832 -22.31777809 19.65132057 -27.86328125 20.31640625 C-33.18569589 22.13559094 -36.17293765 25.45309281 -38.86328125 30.31640625 C-39.88734237 33.38858961 -40.01793485 35.576528 -40.06860352 38.79760742 C-40.08854874 39.91854294 -40.10849396 41.03947845 -40.12904358 42.19438171 C-40.14575607 43.4038295 -40.16246857 44.61327728 -40.1796875 45.859375 C-40.2004686 47.09810867 -40.22124969 48.33684235 -40.24266052 49.6131134 C-40.29699922 52.90265881 -40.34724076 56.19223351 -40.39550781 59.48187256 C-40.44578771 62.84018429 -40.501388 66.19840763 -40.55664062 69.55664062 C-40.66461637 76.14316129 -40.76370785 82.7297317 -40.86328125 89.31640625 C-49.11328125 89.31640625 -57.36328125 89.31640625 -65.86328125 89.31640625 C-65.86328125 59.61640625 -65.86328125 29.91640625 -65.86328125 -0.68359375 C-57.94328125 -0.68359375 -50.02328125 -0.68359375 -41.86328125 -0.68359375 C-41.53328125 1.62640625 -41.20328125 3.93640625 -40.86328125 6.31640625 C-40.21101563 5.83429688 -39.55875 5.3521875 -38.88671875 4.85546875 C-38.01273438 4.22382813 -37.13875 3.5921875 -36.23828125 2.94140625 C-35.37976562 2.31492187 -34.52125 1.6884375 -33.63671875 1.04296875 C-24.37782699 -4.72101739 -9.80528596 -4.7777879 0 0 Z " fill="#1E2F37" transform="translate(1267.86328125,466.68359375)"/>
<path d="M0 0 C8.25 0 16.5 0 25 0 C25 42.24 25 84.48 25 128 C16.75 128 8.5 128 0 128 C0 85.76 0 43.52 0 0 Z " fill="#1F3239" transform="translate(558,429)"/>
<path d="M0 0 C8.25 0 16.5 0 25 0 C25 42.24 25 84.48 25 128 C16.75 128 8.5 128 0 128 C0 85.76 0 43.52 0 0 Z " fill="#213239" transform="translate(903,429)"/>
<path d="M0 0 C0 8.25 0 16.5 0 25 C-2.495625 24.9175 -4.99125 24.835 -7.5625 24.75 C-13.8244941 24.67528053 -18.03705687 24.826616 -23 29 C-30.00656712 36.00656712 -30.45492218 44.36454777 -30.51171875 53.71875 C-30.52966995 54.81723267 -30.54762115 55.91571533 -30.56611633 57.04748535 C-30.61999197 60.53161868 -30.6540426 64.01561679 -30.6875 67.5 C-30.72069308 69.87241455 -30.75518456 72.24481132 -30.79101562 74.6171875 C-30.87813254 80.41147537 -30.93839797 86.20516082 -31 92 C-39.25 92 -47.5 92 -56 92 C-56 62.3 -56 32.6 -56 2 C-48.08 2 -40.16 2 -32 2 C-32 5.3 -32 8.6 -32 12 C-31.67 11.67 -31.34 11.34 -31 11 C-21.10884648 1.68224668 -13.98663779 0 0 0 Z " fill="#1D2F36" transform="translate(1192,464)"/>
<path d="M0 0 C5.8635298 3.55327395 8.67971122 8.97162496 10.4375 15.4375 C10.64929166 18.09177206 10.77142935 20.6009546 10.75 23.25 C10.74371582 24.30840088 10.74371582 24.30840088 10.73730469 25.38818359 C10.5624177 33.4794973 8.69454111 40.15825645 3.4375 46.4375 C-2.75076957 50.94857502 -9.04443336 52.30449286 -16.5625 51.4375 C-24.28745564 49.11019939 -28.68298756 43.88327281 -32.4375 37 C-35.26373552 28.31821065 -34.84842505 16.78635351 -30.97265625 8.5625 C-24.12970803 -1.74931117 -11.46878338 -5.14117876 0 0 Z " fill="#FCFCFB" transform="translate(753.5625,487.5625)"/>
<path d="M0 0 C4.67944192 3.50190183 8.08540671 7.71667419 9.78515625 13.3359375 C10.09049171 16.27809417 10.10986098 19.19245071 10.09765625 22.1484375 C10.11376953 22.91736328 10.12988281 23.68628906 10.14648438 24.47851562 C10.15205007 31.07386475 9.00093588 36.58260187 4.8046875 41.796875 C-0.00530164 45.96837 -3.79270913 48.76782559 -10.21484375 49.3359375 C-10.94703125 49.41585937 -11.67921875 49.49578125 -12.43359375 49.578125 C-18.15171108 49.91102909 -22.60564621 48.80011334 -27.21484375 45.3359375 C-34.2958329 38.09794194 -35.63925895 30.11338614 -35.57617188 20.26391602 C-35.3905393 13.35630373 -34.050233 9.35834179 -29.37890625 4.37890625 C-21.27678413 -3.24205536 -10.04563665 -5.81698057 0 0 Z " fill="#FCFCFB" transform="translate(858.21484375,488.6640625)"/>
<path d="M0 0 C6.31416888 3.99467827 9.74662729 8.81494987 11.58984375 16.06640625 C13.33018205 26.63788269 12.46487548 35.55842936 6.96484375 44.77734375 C3.84305174 49.10552318 0.1350418 50.89719905 -4.9375 51.9375 C-11.08263877 52.66309219 -16.69831134 52.54933165 -22.15234375 49.40234375 C-27.2828939 45.19237371 -30.23394045 39.24611549 -31.9375 32.9375 C-32.80249731 22.72603826 -32.65032911 13.31764076 -26.125 5.0625 C-19.34177978 -2.03353863 -9.26022335 -3.32789277 0 0 Z " fill="#FCFCFB" transform="translate(650.9375,487.0625)"/>
<path d="M0 0 C5.6041391 2.60192172 9.50304377 7.07737118 12.3125 12.5625 C13 15 13 15 13 20 C-0.2 20 -13.4 20 -27 20 C-24.12728294 7.07277325 -24.12728294 7.07277325 -17.5625 2.125 C-12.06085701 -1.06450785 -6.1558849 -0.85989515 0 0 Z " fill="#FCFCFB" transform="translate(991,483)"/>
<path d="M0 0 C0.41551557 5.73642332 0.61402093 10.56304621 -2.671875 15.46875 C-7.51254591 21.04975881 -13.34887622 23.55865249 -20.67578125 24.25390625 C-26.79231733 24.51048625 -30.38710657 24.1273257 -35 20 C-36.54586876 16.90826248 -36.29359521 14.40570448 -36 11 C-32.38297079 6.22035426 -27.95138078 4.83803172 -22.24609375 3.7109375 C-21.14458984 3.49179687 -20.04308594 3.27265625 -18.90820312 3.046875 C-17.76287109 2.82515625 -16.61753906 2.6034375 -15.4375 2.375 C-14.28830078 2.14554688 -13.13910156 1.91609375 -11.95507812 1.6796875 C-3.42166574 0 -3.42166574 0 0 0 Z " fill="#F9FAF9" transform="translate(1098,517)"/>
<path d="M0 0 C8.25 0 16.5 0 25 0 C25 42.24 25 84.48 25 128 C16.75 128 8.5 128 0 128 C0 85.76 0 43.52 0 0 Z M2 2 C2 42.92 2 83.84 2 126 C9.26 126 16.52 126 24 126 C24 85.08 24 44.16 24 2 C16.74 2 9.48 2 2 2 Z " fill="#1A2830" transform="translate(558,429)"/>
<path d="M0 0 C0.66 0.33 1.32 0.66 2 1 C1.01 1.33 0.02 1.66 -1 2 C-1.4640625 2.928125 -1.4640625 2.928125 -1.9375 3.875 C-3.20298687 6.40597375 -4.67272837 7.44848558 -7 9 C-7.66 8.67 -8.32 8.34 -9 8 C-6.37347975 4.40069448 -4.06036357 1.92333011 0 0 Z " fill="#1B2830" transform="translate(1051,511)"/>
<path d="M0 0 C0.66 0.33 1.32 0.66 2 1 C0.74057614 2.19959375 -0.53295286 3.38439443 -1.8125 4.5625 C-2.87404297 5.55443359 -2.87404297 5.55443359 -3.95703125 6.56640625 C-4.63121094 7.03949219 -5.30539062 7.51257813 -6 8 C-6.99 7.67 -7.98 7.34 -9 7 C-6.03 4.69 -3.06 2.38 0 0 Z " fill="#16242B" transform="translate(716,471)"/>
<path d="M0 0 C5.97031739 0.29123499 8.894534 3.02814384 13 7 C12.34 7.66 11.68 8.32 11 9 C10.54109375 8.60167969 10.0821875 8.20335937 9.609375 7.79296875 C6.47728415 5.08857938 3.36122541 2.42008229 0 0 Z " fill="#1C2930" transform="translate(1264,467)"/>
<path d="M0 0 C0.33 0.99 0.66 1.98 1 3 C0.00390625 4.82421875 0.00390625 4.82421875 -1.4375 6.6875 C-1.91058594 7.31011719 -2.38367188 7.93273437 -2.87109375 8.57421875 C-3.24363281 9.04472656 -3.61617187 9.51523437 -4 10 C-4.33 9.01 -4.66 8.02 -5 7 C-4.00390625 5.17578125 -4.00390625 5.17578125 -2.5625 3.3125 C-2.08941406 2.68988281 -1.61632812 2.06726563 -1.12890625 1.42578125 C-0.75636719 0.95527344 -0.38382813 0.48476563 0 0 Z " fill="#101D25" transform="translate(705,481)"/>
</svg>
